<svg xmlns="http://www.w3.org/2000/svg" width="1280" height="320" viewBox="0 0 1280 320" role="img" aria-labelledby="t d">
<!-- generated by github.com/Furkiozknn/Furkiozknn assets/banner/banner.py; edit banners.json there, not this file -->
<title id="t">godot-2d-sablon</title><desc id="d">Two Godot 4 2D starters whose jump feel is measured, not guessed.</desc>
<defs><radialGradient id="g" cx="1" cy="0" r="0.9"><stop offset="0" stop-color="#db61a2" stop-opacity=".16"/><stop offset="1" stop-color="#db61a2" stop-opacity="0"/></radialGradient>
<style>.u{font:700 13px/1 -apple-system,BlinkMacSystemFont,'Segoe UI',Helvetica,Arial,'DejaVu Sans',sans-serif;letter-spacing:.22em;fill:#d4a95c}.n{font:700 60px/1 ui-monospace,SFMono-Regular,'SF Mono',Menlo,Consolas,'DejaVu Sans Mono',monospace;fill:#f2efe6}
.p{font:400 21px/1 -apple-system,BlinkMacSystemFont,'Segoe UI',Helvetica,Arial,'DejaVu Sans',sans-serif;fill:#c9d1d9}.c{fill:none;stroke:#db61a2;stroke-opacity:.55}.ct{font:600 13px/1 ui-monospace,SFMono-Regular,'SF Mono',Menlo,Consolas,'DejaVu Sans Mono',monospace;fill:#db61a2}
.k{font:400 13px/1 ui-monospace,SFMono-Regular,'SF Mono',Menlo,Consolas,'DejaVu Sans Mono',monospace;fill:#7d8590}.d{font:500 14px/1 ui-monospace,SFMono-Regular,'SF Mono',Menlo,Consolas,'DejaVu Sans Mono',monospace;fill:#e6edf3}.f{font:400 12px/1 ui-monospace,SFMono-Regular,'SF Mono',Menlo,Consolas,'DejaVu Sans Mono',monospace;fill:#484f58}</style></defs>
<rect width="1280" height="320" rx="14" fill="#0d1117"/><rect width="1280" height="320" rx="14" fill="url(#g)"/>
<rect x="0.5" y="0.5" width="1279" height="319" rx="13.5" fill="none" stroke="#30363d"/>
<rect x="72" y="0" width="140" height="4" fill="#db61a2"/>
<text x="72" y="64" class="u">GODOT 4 · TEMPLATE</text>
<text x="72" y="128" class="n">godot-2d-sablon</text>
<text x="72" y="176" class="p">Two Godot 4 2D starters whose jump feel is</text><text x="72" y="206" class="p">measured, not guessed.</text><rect x="72" y="244" width="96" height="30" rx="15" class="c"/><text x="120" y="264" class="ct" text-anchor="middle">Godot 4.7</text><rect x="177.60000000000002" y="244" width="188" height="30" rx="15" class="c"/><text x="272" y="264" class="ct" text-anchor="middle">top-down + side-view</text><rect x="375.6" y="244" width="154" height="30" rx="15" class="c"/><text x="453" y="264" class="ct" text-anchor="middle">GL Compatibility</text>
<line x1="790" y1="60" x2="790" y2="260" stroke="#30363d"/>
<circle cx="826" cy="96" r="4" fill="#db61a2" opacity="1.00"/><text x="842" y="101" class="k">jumps</text><text x="930" y="101" class="d">coyote time, buffering</text><circle cx="826" cy="134" r="4" fill="#db61a2" opacity="0.85"/><text x="842" y="139" class="k">varies</text><text x="930" y="139" class="d">jump height by hold time</text><circle cx="826" cy="172" r="4" fill="#db61a2" opacity="0.70"/><text x="842" y="177" class="k">measures</text><text x="930" y="177" class="d">curves in the real engine</text><circle cx="826" cy="210" r="4" fill="#db61a2" opacity="0.55"/><text x="842" y="215" class="k">exports</text><text x="930" y="215" class="d">web and Windows presets</text><circle cx="826" cy="248" r="4" fill="#db61a2" opacity="0.40"/><text x="842" y="253" class="k">updates</text><text x="930" y="253" class="d">git diff + apply --3way</text>
<text x="1208" y="290" class="f" text-anchor="end">github.com/Furkiozknn/godot-2d-sablon</text>
</svg>
