<svg xmlns="http://www.w3.org/2000/svg" viewBox="0 0 900 574" width="900" height="574" role="img" aria-label="Yandan gorunum denetleyicisindeki uc teknigin gercek fizik simulasyonu: degisken zipla yuksekligi 58 pikselden 35 piksele iner, kojot suresi kenardan 0,12 saniye sonrasina kadar ziplamaya izin verir, zipla tamponu inisten 0,12 saniye once basilan tusu hatirlar.">
<rect width="900" height="574" fill="#0e0d12"/>
<text x="28.0" y="34.0" font-family="'Segoe UI',Verdana,'DejaVu Sans',sans-serif" font-size="15.5" fill="#f2efe6" text-anchor="start" font-weight="600">Bu uc teknik olmadan da calisir - ama hantal hisseder.</text>
<text x="28.0" y="55.0" font-family="'Cascadia Code','JetBrains Mono','SFMono-Regular',Consolas,'Liberation Mono',Menlo,monospace" font-size="11" fill="#6b6b77" text-anchor="start">yandan-gorunum/scripts/oyuncu.gd  -  asagidaki her egri o dosyanin sabitleriyle 60 Hz'de kosturuldu</text>
<rect x="28" y="74" width="418" height="246" rx="10" fill="#141419" stroke="#26252f"/>
<text x="46" y="102" font-family="'Segoe UI',Verdana,'DejaVu Sans',sans-serif" font-size="14.5" font-weight="600" fill="#f2efe6">1. Degisken zipla yuksekligi</text>
<text x="46" y="121" font-family="'Cascadia Code','JetBrains Mono','SFMono-Regular',Consolas,'Liberation Mono',Menlo,monospace" font-size="11" fill="#6b6b77">tusu erken birak -> velocity.y *= 0.45</text>
<clipPath id="k1"><rect x="84" y="136" width="334" height="116"/></clipPath>
<g clip-path="url(#k1)">
<line x1="84.0" y1="242.8" x2="418.0" y2="242.8" stroke="#9a9aa6" stroke-width="1.5" opacity="0.45"/>
<path d="M84.0 242.8 L91.7 234.4 L99.5 226.5 L107.2 218.9 L114.9 211.8 L122.7 205.0 L130.4 198.7 L138.1 192.8 L145.9 187.3 L153.6 182.2 L161.3 177.6 L169.0 173.4 L176.8 169.5 L184.5 166.1 L192.2 163.1 L200.0 160.5 L207.7 158.4 L215.4 156.6 L223.2 155.3 L230.9 154.4 L238.6 153.9 L246.4 153.8 L254.1 154.1 L261.8 154.9 L269.6 156.0 L277.3 157.6 L285.0 159.6 L292.8 162.0 L300.5 164.8 L308.2 168.1 L315.9 171.7 L323.7 175.8 L331.4 180.3 L339.1 185.2 L346.9 190.5 L354.6 196.2 L362.3 202.4 L370.1 209.0 L377.8 215.9 L385.5 223.3 L393.3 231.1 L401.0 239.4 L408.7 242.8 L416.5 242.8" fill="none" stroke="#4ade9e" stroke-width="2.2" stroke-linecap="round" stroke-linejoin="round" opacity="1.0"/>
<path d="M84.0 242.8 L91.7 234.4 L99.5 226.5 L107.2 218.9 L114.9 211.8 L122.7 205.0 L130.4 198.7 L138.1 196.1 L145.9 193.8 L153.6 192.0 L161.3 190.6 L169.0 189.6 L176.8 189.0 L184.5 188.8 L192.2 189.1 L200.0 189.8 L207.7 190.8 L215.4 192.3 L223.2 194.3 L230.9 196.6 L238.6 199.3 L246.4 202.5 L254.1 206.1 L261.8 210.1 L269.6 214.5 L277.3 219.3 L285.0 224.5 L292.8 230.2 L300.5 236.3 L308.2 242.7 L315.9 242.8 L323.7 242.8 L331.4 242.8 L339.1 242.8 L346.9 242.8 L354.6 242.8 L362.3 242.8 L370.1 242.8 L377.8 242.8 L385.5 242.8 L393.3 242.8 L401.0 242.8 L408.7 242.8 L416.5 242.8" fill="none" stroke="#e2c94f" stroke-width="2.2" stroke-linecap="round" stroke-linejoin="round" opacity="1.0"/>
<circle cx="130.4" cy="198.7" r="3.8" fill="#e2c94f" stroke="#141419" stroke-width="1.5"/>
</g>
<text x="74.0" y="246.8" font-family="'Cascadia Code','JetBrains Mono','SFMono-Regular',Consolas,'Liberation Mono',Menlo,monospace" font-size="9.5" fill="#6b6b77" text-anchor="end">0</text>
<text x="74.0" y="201.1" font-family="'Cascadia Code','JetBrains Mono','SFMono-Regular',Consolas,'Liberation Mono',Menlo,monospace" font-size="9.5" fill="#6b6b77" text-anchor="end">30</text>
<text x="74.0" y="155.3" font-family="'Cascadia Code','JetBrains Mono','SFMono-Regular',Consolas,'Liberation Mono',Menlo,monospace" font-size="9.5" fill="#6b6b77" text-anchor="end">60</text>
<text x="74.0" y="130.0" font-family="'Cascadia Code','JetBrains Mono','SFMono-Regular',Consolas,'Liberation Mono',Menlo,monospace" font-size="9.5" fill="#6b6b77" text-anchor="end">px</text>
<rect x="46" y="271" width="16" height="3" rx="1.5" fill="#4ade9e"/>
<text x="70.0" y="278.0" font-family="'Cascadia Code','JetBrains Mono','SFMono-Regular',Consolas,'Liberation Mono',Menlo,monospace" font-size="11" fill="#4ade9e" text-anchor="start" font-weight="600">58 px</text>
<text x="109.0" y="278.0" font-family="'Cascadia Code','JetBrains Mono','SFMono-Regular',Consolas,'Liberation Mono',Menlo,monospace" font-size="11" fill="#9a9aa6" text-anchor="start">tus basili tutuldu</text>
<rect x="46" y="291" width="16" height="3" rx="1.5" fill="#e2c94f"/>
<text x="70.0" y="298.0" font-family="'Cascadia Code','JetBrains Mono','SFMono-Regular',Consolas,'Liberation Mono',Menlo,monospace" font-size="11" fill="#e2c94f" text-anchor="start" font-weight="600">35 px</text>
<text x="109.0" y="298.0" font-family="'Cascadia Code','JetBrains Mono','SFMono-Regular',Consolas,'Liberation Mono',Menlo,monospace" font-size="11" fill="#9a9aa6" text-anchor="start">0,10 s'de birakildi  (61%)</text>
<rect x="454" y="74" width="418" height="246" rx="10" fill="#141419" stroke="#26252f"/>
<text x="472" y="102" font-family="'Segoe UI',Verdana,'DejaVu Sans',sans-serif" font-size="14.5" font-weight="600" fill="#f2efe6">2. Kojot suresi</text>
<text x="472" y="121" font-family="'Cascadia Code','JetBrains Mono','SFMono-Regular',Consolas,'Liberation Mono',Menlo,monospace" font-size="11" fill="#6b6b77">kenardan 0.12 s sonrasina kadar zipla hakki</text>
<clipPath id="k2"><rect x="510" y="136" width="334" height="116"/></clipPath>
<g clip-path="url(#k2)">
<rect x="550.7" y="136" width="48.9" height="116" fill="#6cb6ff" opacity="0.14"/>
<rect x="510.0" y="203.2" width="40.7" height="48.8" fill="#9a9aa6" opacity="0.16"/>
<line x1="510.0" y1="203.2" x2="550.7" y2="203.2" stroke="#9a9aa6" stroke-width="1.5" opacity="0.45"/>
<path d="M510.0 203.2 L516.8 203.2 L523.6 203.2 L530.4 203.2 L537.2 203.2 L543.9 203.2 L550.7 203.2 L557.5 203.2 L564.3 203.4 L571.1 204.0 L577.9 204.8 L584.7 205.9 L591.5 207.3 L598.3 209.0 L605.0 210.9 L611.8 213.1 L618.6 215.6 L625.4 218.4 L632.2 221.4 L639.0 224.8 L645.8 228.4 L652.6 232.2 L659.3 236.4 L666.1 240.8 L672.9 245.5 L679.7 250.5 L686.5 255.8 L693.3 261.3 L700.1 267.1 L706.9 273.2 L713.7 279.6 L720.4 286.3 L727.2 293.2 L734.0 300.4 L740.8 307.9 L747.6 315.6 L754.4 323.7 L761.2 332.0 L768.0 340.5 L774.8 349.4 L781.5 358.6 L788.3 368.0 L795.1 377.7 L801.9 387.6 L808.7 397.9 L815.5 408.4 L822.3 419.2 L829.1 430.3 L835.9 441.7 L842.6 453.3" fill="none" stroke="#ff6b6b" stroke-width="2.0" stroke-linecap="round" stroke-linejoin="round" opacity="0.9"/>
<path d="M510.0 203.2 L516.8 203.2 L523.6 203.2 L530.4 203.2 L537.2 203.2 L543.9 203.2 L550.7 203.2 L557.5 203.2 L564.3 203.4 L571.1 204.0 L577.9 204.8 L584.7 205.9 L591.5 207.3 L598.3 201.7 L605.0 196.4 L611.8 191.4 L618.6 186.6 L625.4 182.1 L632.2 177.9 L639.0 174.0 L645.8 170.3 L652.6 166.9 L659.3 163.8 L666.1 161.0 L672.9 158.4 L679.7 156.2 L686.5 154.2 L693.3 152.5 L700.1 151.0 L706.9 149.8 L713.7 149.0 L720.4 148.3 L727.2 148.0 L734.0 148.0 L740.8 148.2 L747.6 148.7 L754.4 149.4 L761.2 150.5 L768.0 151.8 L774.8 153.4 L781.5 155.3 L788.3 157.5 L795.1 159.9 L801.9 162.6 L808.7 165.6 L815.5 168.9 L822.3 172.4 L829.1 176.2 L835.9 180.3 L842.6 184.7" fill="none" stroke="#6cb6ff" stroke-width="2.2" stroke-linecap="round" stroke-linejoin="round" opacity="1.0"/>
<circle cx="591.5" cy="207.3" r="3.8" fill="#6cb6ff" stroke="#141419" stroke-width="1.5"/>
<circle cx="611.8" cy="213.1" r="3.8" fill="#ff6b6b" stroke="#141419" stroke-width="1.5"/>
</g>
<text x="575.2" y="150.0" font-family="'Cascadia Code','JetBrains Mono','SFMono-Regular',Consolas,'Liberation Mono',Menlo,monospace" font-size="10" fill="#6cb6ff" text-anchor="middle">0.12 s</text>
<text x="530.4" y="221.2" font-family="'Cascadia Code','JetBrains Mono','SFMono-Regular',Consolas,'Liberation Mono',Menlo,monospace" font-size="9.5" fill="#6b6b77" text-anchor="middle">platform</text>
<rect x="472" y="271" width="16" height="3" rx="1.5" fill="#6cb6ff"/>
<text x="496.0" y="278.0" font-family="'Cascadia Code','JetBrains Mono','SFMono-Regular',Consolas,'Liberation Mono',Menlo,monospace" font-size="11" fill="#6cb6ff" text-anchor="start" font-weight="600">+0,10 s</text>
<text x="548.2" y="278.0" font-family="'Cascadia Code','JetBrains Mono','SFMono-Regular',Consolas,'Liberation Mono',Menlo,monospace" font-size="11" fill="#9a9aa6" text-anchor="start">kenardan sonra basildi  ->  yine de ziplar</text>
<rect x="472" y="291" width="16" height="3" rx="1.5" fill="#ff6b6b"/>
<text x="496.0" y="298.0" font-family="'Cascadia Code','JetBrains Mono','SFMono-Regular',Consolas,'Liberation Mono',Menlo,monospace" font-size="11" fill="#ff6b6b" text-anchor="start" font-weight="600">+0,15 s</text>
<text x="548.2" y="298.0" font-family="'Cascadia Code','JetBrains Mono','SFMono-Regular',Consolas,'Liberation Mono',Menlo,monospace" font-size="11" fill="#9a9aa6" text-anchor="start">pencere kapandi  ->  dusmeye devam</text>
<rect x="28" y="338" width="844" height="208" rx="10" fill="#141419" stroke="#26252f"/>
<text x="46" y="366" font-family="'Segoe UI',Verdana,'DejaVu Sans',sans-serif" font-size="14.5" font-weight="600" fill="#f2efe6">3. Zipla tamponu</text>
<text x="46" y="385" font-family="'Cascadia Code','JetBrains Mono','SFMono-Regular',Consolas,'Liberation Mono',Menlo,monospace" font-size="11" fill="#6b6b77">inisten 0.12 s oncesine kadar basilan tus hatirlanir</text>
<clipPath id="k3"><rect x="84" y="400" width="424" height="104"/></clipPath>
<g clip-path="url(#k3)">
<rect x="193.0" y="400" width="72.7" height="104" fill="#4ade9e" opacity="0.14"/>
<line x1="84.0" y1="458.0" x2="508.0" y2="458.0" stroke="#9a9aa6" stroke-width="1.5" opacity="0.45"/>
<path d="M84.0 413.0 L94.1 413.3 L104.2 413.8 L114.3 414.6 L124.4 415.7 L134.5 417.1 L144.6 418.7 L154.7 420.6 L164.8 422.8 L174.9 425.2 L185.0 428.0 L195.0 431.0 L205.1 434.2 L215.2 437.8 L225.3 441.6 L235.4 445.7 L245.5 450.0 L255.6 454.7 L265.7 458.0" fill="none" stroke="#9a9aa6" stroke-width="2.0" stroke-linecap="round" stroke-linejoin="round" opacity="0.55"/>
<path d="M265.7 458.0 L275.8 458.0 L285.9 458.0 L296.0 458.0 L306.1 458.0 L316.2 458.0 L326.3 458.0 L336.4 458.0 L346.5 458.0 L356.6 458.0 L366.7 458.0 L376.8 458.0 L386.9 458.0 L397.0 458.0 L407.0 458.0 L417.1 458.0 L427.2 458.0 L437.3 458.0 L447.4 458.0 L457.5 458.0 L467.6 458.0 L477.7 458.0 L487.8 458.0 L497.9 458.0 L508.0 458.0" fill="none" stroke="#ff6b6b" stroke-width="2.0" stroke-linecap="round" stroke-linejoin="round" opacity="0.9"/>
<path d="M265.7 458.0 L275.8 452.5 L285.9 447.3 L296.0 442.3 L306.1 437.6 L316.2 433.2 L326.3 429.1 L336.4 425.2 L346.5 421.6 L356.6 418.3 L366.7 415.2 L376.8 412.5 L386.9 410.0 L397.0 407.7 L407.0 405.8 L417.1 404.1 L427.2 402.7 L437.3 401.5 L447.4 400.6 L457.5 400.1 L467.6 399.7 L477.7 399.7 L487.8 399.9 L497.9 400.4 L508.0 401.1" fill="none" stroke="#4ade9e" stroke-width="2.2" stroke-linecap="round" stroke-linejoin="round" opacity="1.0"/>
<circle cx="217.3" cy="437.8" r="3.8" fill="#4ade9e" stroke="#141419" stroke-width="1.5"/>
<circle cx="144.6" cy="418.7" r="3.8" fill="#ff6b6b" stroke="#141419" stroke-width="1.5"/>
<line x1="265.7" y1="400" x2="265.7" y2="504" stroke="#9a9aa6" stroke-width="1" stroke-dasharray="3 3" opacity="0.6"/>
</g>
<text x="229.4" y="414.0" font-family="'Cascadia Code','JetBrains Mono','SFMono-Regular',Consolas,'Liberation Mono',Menlo,monospace" font-size="10" fill="#4ade9e" text-anchor="middle">0.12 s</text>
<text x="271.7" y="500.0" font-family="'Cascadia Code','JetBrains Mono','SFMono-Regular',Consolas,'Liberation Mono',Menlo,monospace" font-size="9.5" fill="#9a9aa6" text-anchor="start">inis</text>
<rect x="552" y="417" width="16" height="3" rx="1.5" fill="#4ade9e"/>
<text x="576.0" y="424.0" font-family="'Cascadia Code','JetBrains Mono','SFMono-Regular',Consolas,'Liberation Mono',Menlo,monospace" font-size="11" fill="#4ade9e" text-anchor="start" font-weight="600">inise 0,08 s</text>
<text x="661.2" y="424.0" font-family="'Cascadia Code','JetBrains Mono','SFMono-Regular',Consolas,'Liberation Mono',Menlo,monospace" font-size="11" fill="#9a9aa6" text-anchor="start">kala basildi  ->  yere degdigi an ziplar</text>
<rect x="552" y="443" width="16" height="3" rx="1.5" fill="#ff6b6b"/>
<text x="576.0" y="450.0" font-family="'Cascadia Code','JetBrains Mono','SFMono-Regular',Consolas,'Liberation Mono',Menlo,monospace" font-size="11" fill="#ff6b6b" text-anchor="start" font-weight="600">inise 0,20 s</text>
<text x="661.2" y="450.0" font-family="'Cascadia Code','JetBrains Mono','SFMono-Regular',Consolas,'Liberation Mono',Menlo,monospace" font-size="11" fill="#9a9aa6" text-anchor="start">kala basildi  ->  tus yutulur</text>
<text x="552.0" y="488.0" font-family="'Cascadia Code','JetBrains Mono','SFMono-Regular',Consolas,'Liberation Mono',Menlo,monospace" font-size="11" fill="#6b6b77" text-anchor="start">Tampon olmadan erken basilan her tus sessizce</text>
<text x="552.0" y="505.0" font-family="'Cascadia Code','JetBrains Mono','SFMono-Regular',Consolas,'Liberation Mono',Menlo,monospace" font-size="11" fill="#6b6b77" text-anchor="start">kaybolur - ve oyuncu bunu kendi hatasi sanir.</text>
<text x="552.0" y="522.0" font-family="'Cascadia Code','JetBrains Mono','SFMono-Regular',Consolas,'Liberation Mono',Menlo,monospace" font-size="11" fill="#6b6b77" text-anchor="start">Oysa tus tam zamaninda basilmisti.</text>
<text x="872.0" y="560.0" font-family="'Cascadia Code','JetBrains Mono','SFMono-Regular',Consolas,'Liberation Mono',Menlo,monospace" font-size="10" fill="#6b6b77" text-anchor="end">zipla_gucu 330   yercekimi 980   kesme 0.45   60 Hz sabit adim</text>
<rect x="0.5" y="0.5" width="899" height="573" rx="12" fill="none" stroke="#26252f"/>
</svg>